<?xml version="1.0"?>
<svg width="900" height="800" xmlns="http://www.w3.org/2000/svg" xmlns:svg="http://www.w3.org/2000/svg">
 <title>Bootstrap</title>
 <defs>
  <filter color-interpolation-filters="sRGB" filterUnits="userSpaceOnUse" height="623.928" id="filter0_d" width="704" x="98" y="96">
   <feFlood flood-opacity="0" result="BackgroundImageFix"/>
   <feColorMatrix in="SourceAlpha" values="0 0 0 0 0 0 0 0 0 0 0 0 0 0 0 0 0 0 127 0"/>
   <feOffset dy="8"/>
   <feGaussianBlur stdDeviation="16"/>
   <feColorMatrix values="0 0 0 0 0.423529 0 0 0 0 0.0666667 0 0 0 0 0.956863 0 0 0 0.25 0"/>
   <feBlend in2="BackgroundImageFix"/>
   <feBlend in="SourceGraphic" in2="effect1_dropShadow"/>
  </filter>
  <filter color-interpolation-filters="sRGB" filterUnits="userSpaceOnUse" height="302.767" id="filter2_d" width="260.144" x="327.804" y="252.368">
   <feFlood flood-opacity="0" result="BackgroundImageFix"/>
   <feColorMatrix in="SourceAlpha" values="0 0 0 0 0 0 0 0 0 0 0 0 0 0 0 0 0 0 127 0"/>
   <feOffset dy="4"/>
   <feGaussianBlur stdDeviation="8"/>
   <feColorMatrix values="0 0 0 0 0 0 0 0 0 0 0 0 0 0 0 0 0 0 0.15 0"/>
   <feBlend in2="BackgroundImageFix"/>
   <feBlend in="SourceGraphic" in2="effect1_dropShadow"/>
  </filter>
  <filter color-interpolation-filters="sRGB" filterUnits="userSpaceOnUse" height="303.992" id="filter3_d" width="261.369" x="327.192" y="251.755">
   <feFlood flood-opacity="0" result="BackgroundImageFix"/>
   <feColorMatrix in="SourceAlpha" values="0 0 0 0 0 0 0 0 0 0 0 0 0 0 0 0 0 0 127 0"/>
   <feOffset dy="4"/>
   <feGaussianBlur stdDeviation="8"/>
   <feColorMatrix values="0 0 0 0 0 0 0 0 0 0 0 0 0 0 0 0 0 0 0.15 0"/>
   <feBlend in2="BackgroundImageFix"/>
   <feBlend in="SourceGraphic" in2="effect1_dropShadow"/>
  </filter>
  <linearGradient id="paint1_linear" x1="0.054021" x2="1.096381" y1="0.206009" y2="0.688137">
   <stop offset="0" stop-color="#fd7e14"/>
   <stop offset="0.995" stop-color="#f76036"/>
  </linearGradient>
  <linearGradient id="paint2_linear" x1="0.090945" x2="0.803247" y1="0.150912" y2="0.726456">
   <stop offset="0" stop-color="#fff"/>
   <stop offset="1" stop-color="#f1e5fc"/>
  </linearGradient>
  <clipPath id="clip0">
   <path d="m0,0l900,0l0,800l-900,0l0,-800z" fill="#fff" id="svg_1"/>
  </clipPath>
 </defs>
 <g class="layer">
  <title>Layer 1</title>
  <g clip-path="url(#clip0)" id="svg_2" transform="rotate(15 465 418)">
   <path clip-rule="evenodd" d="m217.606,318.603c-8.615,-28.187 6.531,-60.366 36.506,-68.398l309.643,-82.969c29.975,-8.031 59.181,12.264 65.814,40.982c6.371,27.588 17.095,62.662 33.744,89.141c16.7,26.562 36.732,40.854 62.058,36.589l7.125,26.591c-24.065,8.969 -34.268,31.362 -35.45,62.716c-1.178,31.256 7.072,66.993 15.348,94.07c8.615,28.187 -6.531,60.366 -36.506,68.398l-309.643,82.969c-29.975,8.031 -59.181,-12.264 -65.814,-40.982c-6.371,-27.587 -17.095,-62.661 -33.744,-89.141c-16.7,-26.562 -36.732,-40.854 -62.058,-36.588l-7.125,-26.592c24.065,-8.969 34.268,-31.362 35.45,-62.715c1.178,-31.257 -7.072,-66.994 -15.348,-94.071z" fill="url(#paint1_linear)" fill-rule="evenodd" filter="url(#filter0_d)" id="svg_3"/>
   <path d="m509.943,528.853c48.05,-12.875 70.547,-44.737 59.895,-84.492c-8.052,-30.051 -34.542,-46.271 -66.141,-41.494l-0.336,-1.252c21.532,-9.796 33.472,-35.977 27.056,-59.924c-9.143,-34.12 -41.392,-49.3 -81.46,-38.564l-88.221,23.639a2,2 0 0 0 -1.414,2.449l59.481,221.988a2,2 0 0 0 2.45,1.414l88.69,-23.764zm-108.405,-182.321l46.642,-12.498c25.355,-6.794 42.858,0.93 48.478,21.903c5.997,22.382 -7.395,39.39 -37.759,47.526l-39.286,10.527l-18.075,-67.458zm45.167,168.567l-19.92,-74.345l46.328,-12.414c33.181,-8.891 53.753,-0.983 60.296,23.434c6.542,24.416 -6.724,41.894 -38.34,50.366l-48.364,12.959z" fill="url(#paint2_linear)" filter="url(#filter2_d)" id="svg_4"/>
   <path clip-rule="evenodd" d="m358.839,329.345a2.5,2.5 0 0 1 1.767,-3.062l88.221,-23.639c20.12,-5.391 38.326,-4.288 52.67,2.492c14.355,6.784 24.796,19.232 29.403,36.426c6.438,24.026 -5.424,50.293 -26.947,60.331l0.111,0.414c31.637,-4.594 58.171,11.749 66.257,41.925c5.36,20.004 2.385,38.065 -8.009,52.744c-10.386,14.667 -28.139,25.902 -52.24,32.36l-88.69,23.764a2.5,2.5 0 0 1 -3.062,-1.768l-59.481,-221.987zm2.026,-2.096a1.5,1.5 0 0 0 -1.06,1.837l59.481,221.988a1.5,1.5 0 0 0 1.837,1.06l88.691,-23.764c23.949,-6.418 41.47,-17.551 51.682,-31.972c10.203,-14.409 13.151,-32.157 7.859,-51.908c-7.981,-29.786 -34.216,-45.87 -65.584,-41.129l-0.442,0.067l-0.561,-2.093l0.386,-0.175c21.297,-9.689 33.137,-35.616 26.78,-59.34c-4.536,-16.926 -14.791,-29.128 -28.864,-35.78c-14.083,-6.656 -32.036,-7.775 -51.984,-2.43l-88.221,23.639zm40.061,18.929l47.124,-12.627c12.743,-3.414 23.585,-3.201 31.974,0.566c8.408,3.775 14.275,11.085 17.117,21.691c3.034,11.325 1.167,21.34 -5.336,29.545c-6.485,8.183 -17.539,14.51 -32.777,18.593l-39.768,10.656l-18.334,-68.424zm1.224,0.707l17.817,66.492l38.802,-10.397c15.126,-4.053 25.951,-10.297 32.253,-18.248c6.284,-7.929 8.115,-17.61 5.153,-28.666c-2.778,-10.367 -8.473,-17.405 -16.56,-21.037c-8.106,-3.64 -18.693,-3.891 -31.306,-0.512l-46.159,12.368zm24.022,93.515l46.812,-12.543c16.638,-4.458 30.197,-4.729 40.447,-0.757c10.282,3.985 17.155,12.209 20.461,24.544c3.303,12.329 1.615,22.969 -4.946,31.595c-6.545,8.603 -17.885,15.133 -33.748,19.384l-48.846,13.088l-20.18,-75.311zm1.225,0.707l19.662,73.379l47.88,-12.829c15.753,-4.221 26.854,-10.666 33.211,-19.024c6.341,-8.335 8.014,-18.643 4.776,-30.73c-3.238,-12.081 -9.921,-20.019 -19.856,-23.87c-9.967,-3.863 -23.284,-3.643 -39.827,0.79l-45.846,12.284z" fill="#fff" fill-rule="evenodd" filter="url(#filter3_d)" id="svg_5"/>
  </g>
 </g>
</svg>
