<svg xmlns="http://www.w3.org/2000/svg" width="3000" height="2660" viewBox="0 0 900 800">
    <title>Bootstrap</title>
    <defs>
      <filter id="filter0_d" width="704" height="623.928" x="98" y="96" color-interpolation-filters="sRGB" filterUnits="userSpaceOnUse">
            <feFlood flood-opacity="0" result="BackgroundImageFix"></feFlood>
            <feColorMatrix in="SourceAlpha" values="0 0 0 0 0 0 0 0 0 0 0 0 0 0 0 0 0 0 127 0"></feColorMatrix>
            <feOffset dy="8"></feOffset>
            <feGaussianBlur stdDeviation="16"></feGaussianBlur>
            <feColorMatrix values="0 0 0 0 0.423529 0 0 0 0 0.0666667 0 0 0 0 0.956863 0 0 0 0.25 0"></feColorMatrix>
            <feBlend in2="BackgroundImageFix" result="effect1_dropShadow"></feBlend>
            <feBlend in="SourceGraphic" in2="effect1_dropShadow" result="shape"></feBlend>
        </filter>
      <filter id="filter2_d" width="260.144" height="302.767" x="327.804" y="252.368" color-interpolation-filters="sRGB" filterUnits="userSpaceOnUse">
            <feFlood flood-opacity="0" result="BackgroundImageFix"></feFlood>
            <feColorMatrix in="SourceAlpha" values="0 0 0 0 0 0 0 0 0 0 0 0 0 0 0 0 0 0 127 0"></feColorMatrix>
            <feOffset dy="4"></feOffset><feGaussianBlur stdDeviation="8"></feGaussianBlur>
            <feColorMatrix values="0 0 0 0 0 0 0 0 0 0 0 0 0 0 0 0 0 0 0.15 0"></feColorMatrix>
            <feBlend in2="BackgroundImageFix" result="effect1_dropShadow"></feBlend>
            <feBlend in="SourceGraphic" in2="effect1_dropShadow" result="shape"></feBlend>
        </filter>
      <filter id="filter3_d" width="261.369" height="303.992" x="327.192" y="251.755" color-interpolation-filters="sRGB" filterUnits="userSpaceOnUse">
            <feFlood flood-opacity="0" result="BackgroundImageFix"></feFlood>
            <feColorMatrix in="SourceAlpha" values="0 0 0 0 0 0 0 0 0 0 0 0 0 0 0 0 0 0 127 0"></feColorMatrix>
            <feOffset dy="4"></feOffset>
            <feGaussianBlur stdDeviation="8"></feGaussianBlur>
            <feColorMatrix values="0 0 0 0 0 0 0 0 0 0 0 0 0 0 0 0 0 0 0.15 0"></feColorMatrix>
            <feBlend in2="BackgroundImageFix" result="effect1_dropShadow"></feBlend>
            <feBlend in="SourceGraphic" in2="effect1_dropShadow" result="shape"></feBlend>
        </filter>
      <linearGradient id="paint1_linear" x1="211.405" x2="769.059" y1="251.5" y2="494.972" gradientUnits="userSpaceOnUse">
            <stop offset="0" stop-color="#fd7e14"></stop>
            <stop offset=".995" stop-color="#f76036"></stop>
        </linearGradient>
      <linearGradient id="paint2_linear" x1="363.642" x2="515.493" y1="319.901" y2="465.49" gradientUnits="userSpaceOnUse">
            <stop offset="0" stop-color="#fff"></stop>
            <stop offset="1" stop-color="#f1e5fc"></stop>
        </linearGradient>
        <clipPath id="clip0">
            <path fill="#fff" d="M0 0h900v800H0z"></path>
        </clipPath>
    </defs>
    <g clip-path="url(#clip0)">
        <path fill="url(#paint1_linear)" fill-rule="evenodd" d="M202.606 300.603c-8.615-28.187 6.531-60.366 36.506-68.398l309.643-82.969c29.975-8.031 59.181 12.264 65.814 40.982 6.371 27.588 17.095 62.662 33.744 89.141 16.7 26.562 36.732 40.854 62.058 36.589l7.125 26.591c-24.065 8.969-34.268 31.362-35.45 62.716-1.178 31.256 7.072 66.993 15.348 94.07 8.615 28.187-6.531 60.366-36.506 68.398l-309.643 82.969c-29.975 8.031-59.181-12.264-65.814-40.982-6.371-27.587-17.095-62.661-33.744-89.141-16.7-26.562-36.732-40.854-62.058-36.588l-7.125-26.592c24.065-8.969 34.268-31.362 35.45-62.715 1.178-31.257-7.072-66.994-15.348-94.071z" clip-rule="evenodd" filter="url(#filter0_d)"></path>
        <path fill="url(#paint2_linear)" d="M494.943 510.853c48.05-12.875 70.547-44.737 59.895-84.492-8.052-30.051-34.542-46.271-66.141-41.494l-.336-1.252c21.532-9.796 33.472-35.977 27.056-59.924-9.143-34.12-41.392-49.3-81.46-38.564l-88.221 23.639a2 2 0 00-1.414 2.449l59.481 221.988a2 2 0 002.45 1.414l88.69-23.764zM386.538 328.532l46.642-12.498c25.355-6.794 42.858.93 48.478 21.903 5.997 22.382-7.395 39.39-37.759 47.526l-39.286 10.527-18.075-67.458zm45.167 168.567l-19.92-74.345 46.328-12.414c33.181-8.891 53.753-.983 60.296 23.434 6.542 24.416-6.724 41.894-38.34 50.366l-48.364 12.959z" filter="url(#filter2_d)"></path>
        <path fill="#fff" fill-rule="evenodd" d="M343.839 311.345a2.5 2.5 0 011.767-3.062l88.221-23.639c20.12-5.391 38.326-4.288 52.67 2.492 14.355 6.784 24.796 19.232 29.403 36.426 6.438 24.026-5.424 50.293-26.947 60.331l.111.414c31.637-4.594 58.171 11.749 66.257 41.925 5.36 20.004 2.385 38.065-8.009 52.744-10.386 14.667-28.139 25.902-52.24 32.36l-88.69 23.764a2.5 2.5 0 01-3.062-1.768l-59.481-221.987zm2.026-2.096a1.5 1.5 0 00-1.06 1.837l59.481 221.988a1.5 1.5 0 001.837 1.06l88.691-23.764c23.949-6.418 41.47-17.551 51.682-31.972 10.203-14.409 13.151-32.157 7.859-51.908-7.981-29.786-34.216-45.87-65.584-41.129l-.442.067-.561-2.093.386-.175c21.297-9.689 33.137-35.616 26.78-59.34-4.536-16.926-14.791-29.128-28.864-35.78-14.083-6.656-32.036-7.775-51.984-2.43l-88.221 23.639zm40.061 18.929l47.124-12.627c12.743-3.414 23.585-3.201 31.974.566 8.408 3.775 14.275 11.085 17.117 21.691 3.034 11.325 1.167 21.34-5.336 29.545-6.485 8.183-17.539 14.51-32.777 18.593l-39.768 10.656-18.334-68.424zm1.224.707l17.817 66.492 38.802-10.397c15.126-4.053 25.951-10.297 32.253-18.248 6.284-7.929 8.115-17.61 5.153-28.666-2.778-10.367-8.473-17.405-16.56-21.037-8.106-3.64-18.693-3.891-31.306-.512l-46.159 12.368zm24.022 93.515l46.812-12.543c16.638-4.458 30.197-4.729 40.447-.757 10.282 3.985 17.155 12.209 20.461 24.544 3.303 12.329 1.615 22.969-4.946 31.595-6.545 8.603-17.885 15.133-33.748 19.384l-48.846 13.088-20.18-75.311zm1.225.707l19.662 73.379 47.88-12.829c15.753-4.221 26.854-10.666 33.211-19.024 6.341-8.335 8.014-18.643 4.776-30.73-3.238-12.081-9.921-20.019-19.856-23.87-9.967-3.863-23.284-3.643-39.827.79l-45.846 12.284z" clip-rule="evenodd" filter="url(#filter3_d)"></path>
    </g>
</svg>
